<?xml version="1.0" standalone="no"?>
<!DOCTYPE svg PUBLIC "-//W3C//DTD SVG 20010904//EN"
 "http://www.w3.org/TR/2001/REC-SVG-20010904/DTD/svg10.dtd">
<svg version="1.0" xmlns="http://www.w3.org/2000/svg"
 width="991.000000pt" height="991.000000pt" viewBox="0 0 991.000000 991.000000"
 preserveAspectRatio="xMidYMid meet">
<metadata>
Created by potrace 1.14, written by Peter Selinger 2001-2017
</metadata>
<g transform="translate(0.000000,991.000000) scale(0.100000,-0.100000)"
fill="#000000" stroke="none">
<path d="M6135 8455 c-11 -2 -69 -9 -130 -15 -717 -76 -1453 -396 -2009 -874
l-59 -51 -441 -5 -441 -5 -5 -705 -5 -705 -52 -151 c-61 -181 -116 -410 -144
-605 -23 -162 -40 -479 -29 -520 5 -15 6 -30 2 -33 -3 -3 1 -6 9 -6 11 0 12
-2 1 -9 -10 -6 -7 -10 12 -13 19 -4 26 -1 26 11 0 10 9 17 22 18 11 1 24 6 27
12 4 7 106 51 117 51 1 0 4 -55 8 -122 8 -162 26 -306 55 -443 6 -27 14 -63
17 -80 5 -32 23 -101 32 -125 3 -8 5 -18 4 -22 -1 -4 3 -20 9 -35 7 -15 11
-38 10 -51 0 -14 3 -21 10 -16 6 4 9 -1 8 -12 -2 -11 5 -35 14 -55 10 -20 17
-42 15 -50 -2 -8 3 -13 10 -12 6 2 12 -6 12 -16 0 -27 -11 -52 -19 -46 -4 2
-8 -2 -8 -10 0 -8 4 -12 9 -9 4 3 8 1 8 -5 0 -5 3 -18 6 -28 5 -16 4 -16 -12
2 l-17 20 8 -20 c12 -33 18 -102 7 -87 -11 16 -22 17 -31 3 -9 -14 -104 228
-97 246 3 8 1 11 -4 8 -6 -3 -11 1 -11 9 -2 18 -3 25 -12 46 -37 95 -69 238
-103 460 -14 91 -28 175 -30 186 -5 26 -64 113 -86 128 -22 13 -226 -72 -250
-106 -16 -20 -16 -34 -7 -123 21 -208 78 -476 143 -675 19 -57 22 -78 13 -86
-7 -6 -64 -32 -127 -58 -63 -26 -197 -84 -298 -128 -101 -44 -184 -79 -186
-77 -2 2 -21 33 -41 69 -45 77 -102 150 -117 150 -7 0 -64 -22 -127 -49 -64
-28 -318 -136 -566 -241 -247 -106 -463 -198 -480 -205 -16 -8 -127 -55 -245
-105 -439 -186 -448 -190 -489 -235 -55 -59 -74 -126 -69 -234 4 -82 9 -96 92
-291 118 -277 131 -303 185 -359 63 -67 139 -104 216 -105 56 -1 85 10 490
183 463 198 736 314 1160 495 315 134 293 110 250 282 -15 58 -25 107 -23 109
8 8 619 267 622 264 1 -2 31 -53 66 -114 155 -269 390 -575 442 -575 10 0 51
14 91 30 l72 31 125 -124 c584 -575 1434 -936 2279 -965 490 -17 889 37 1321
179 568 188 1064 493 1477 911 292 295 493 576 678 950 231 467 347 930 362
1448 6 196 5 214 -10 202 -14 -12 -16 -9 -20 20 -4 32 -4 32 -6 -7 -2 -32 -4
-36 -11 -20 -4 11 -6 30 -3 43 3 12 0 22 -6 22 -7 0 -11 21 -11 52 0 28 -4 79
-9 112 -6 34 -15 97 -21 141 -24 175 -105 500 -132 532 -7 9 -11 17 -8 17 3 1
-1 20 -9 43 -8 23 -18 40 -22 37 -8 -5 -12 7 -24 66 -2 14 -11 52 -20 85 -12
49 -15 143 -15 508 l0 448 -36 74 c-40 83 -73 116 -147 151 -51 23 -56 24
-354 24 l-302 0 -68 58 c-461 396 -1060 670 -1701 778 -152 25 -189 34 -144
34 12 0 22 5 22 10 0 6 17 11 38 11 37 1 37 1 7 9 -16 4 -24 8 -16 9 41 3 -12
15 -116 26 -104 11 -575 18 -628 10z"/>
<path d="M6908 8423 c7 -3 16 -2 19 1 4 3 -2 6 -13 5 -11 0 -14 -3 -6 -6z"/>
<path d="M9891 5240 c0 -8 4 -24 9 -35 5 -13 9 -14 9 -5 0 8 -4 24 -9 35 -5
13 -9 14 -9 5z"/>
<path d="M3141 3984 c0 -11 3 -14 6 -6 3 7 2 16 -1 19 -3 4 -6 -2 -5 -13z"/>
<path d="M3195 3680 c3 -5 8 -10 11 -10 2 0 4 5 4 10 0 6 -5 10 -11 10 -5 0
-7 -4 -4 -10z"/>
</g>
</svg>
